#N canvas 0 22 526 462 10;
#X obj 94 40 fiddle~;
#X obj 94 12 adc~;
#X obj 107 61 bng 15 250 50 0 empty empty empty 0 -6 0 8 -262144 -1
-1;
#X text -18 58 <-- banged on attack;
#X obj 138 61 - 100;
#X obj 94 115 mtof;
#X obj 124 244 *~;
#X obj 94 135 osc~;
#X obj 139 140 -;
#X obj 139 170 / 100;
#X obj 139 223 line~;
#X msg 139 202 \$1 50;
#X obj 94 96 - 12;
#X obj 124 305 *~;
#X obj 138 285 / 100;
#X floatatom 138 265 5 0 0 0 - - -;
#X obj 154 118 pipe 200;
#X obj 124 336 dac~;
#X connect 0 0 12 0;
#X connect 0 1 2 0;
#X connect 0 3 4 0;
#X connect 1 0 0 0;
#X connect 1 1 0 0;
#X connect 4 0 8 0;
#X connect 4 0 16 0;
#X connect 5 0 7 0;
#X connect 6 0 13 0;
#X connect 7 0 6 0;
#X connect 8 0 9 0;
#X connect 9 0 11 0;
#X connect 10 0 6 1;
#X connect 11 0 10 0;
#X connect 12 0 5 0;
#X connect 13 0 17 0;
#X connect 13 0 17 1;
#X connect 14 0 13 1;
#X connect 15 0 14 0;
#X connect 16 0 8 1;
